<?xml version="1.0" encoding="UTF-8" standalone="no"?>
<svg
   xmlns:dc="http://purl.org/dc/elements/1.1/"
   xmlns:cc="http://creativecommons.org/ns#"
   xmlns:rdf="http://www.w3.org/1999/02/22-rdf-syntax-ns#"
   xmlns:svg="http://www.w3.org/2000/svg"
   xmlns="http://www.w3.org/2000/svg"
   xmlns:sodipodi="http://sodipodi.sourceforge.net/DTD/sodipodi-0.dtd"
   xmlns:inkscape="http://www.inkscape.org/namespaces/inkscape"
   version="1.1"
   width="372.99017"
   height="180.19922"
   id="svg3701"
   viewBox="0 0 372.99016 180.19922"
   sodipodi:docname="LVTM_Logo.svg"
   inkscape:version="0.92.1 r15371"
   inkscape:export-filename="C:\Projects\lvtm_find-filter\images_LVTM\LVTM_Logo1.png"
   inkscape:export-xdpi="150.01797"
   inkscape:export-ydpi="150.01797">
  <metadata
     id="metadata3707">
    <rdf:RDF>
      <cc:Work
         rdf:about="">
        <dc:format>image/svg+xml</dc:format>
        <dc:type
           rdf:resource="http://purl.org/dc/dcmitype/StillImage" />
        <dc:title />
      </cc:Work>
    </rdf:RDF>
  </metadata>
  <defs
     id="defs3705">
    <inkscape:path-effect
       effect="powerstroke"
       id="path-effect4746"
       is_visible="true"
       offset_points="0,0.5"
       sort_points="true"
       interpolator_type="CubicBezierJohan"
       interpolator_beta="0.2"
       start_linecap_type="zerowidth"
       linejoin_type="extrp_arc"
       miter_limit="4"
       end_linecap_type="zerowidth" />
  </defs>
  <sodipodi:namedview
     pagecolor="#ffffff"
     bordercolor="#666666"
     borderopacity="1"
     objecttolerance="10"
     gridtolerance="10"
     guidetolerance="10"
     inkscape:pageopacity="0"
     inkscape:pageshadow="2"
     inkscape:window-width="2880"
     inkscape:window-height="1675"
     id="namedview3703"
     showgrid="false"
     fit-margin-top="0"
     fit-margin-left="0"
     fit-margin-right="0"
     fit-margin-bottom="0"
     showborder="true"
     inkscape:zoom="4"
     inkscape:cx="161.76222"
     inkscape:cy="30.470441"
     inkscape:window-x="-13"
     inkscape:window-y="-13"
     inkscape:window-maximized="1"
     inkscape:current-layer="layer5" />
  <g
     inkscape:groupmode="layer"
     id="layer7"
     inkscape:label="Background">
    <rect
       style="fill:#ffffff;fill-opacity:1;stroke:#ffffff;stroke-width:1.67233396;stroke-linejoin:round;stroke-miterlimit:4;stroke-dasharray:none;stroke-opacity:1"
       id="rect4802"
       width="371.45248"
       height="178.78604"
       x="0.95904672"
       y="0.83231014"
       ry="0" />
  </g>
  <g
     inkscape:groupmode="layer"
     id="layer2"
     inkscape:label="Layer 1"
     style="display:inline;opacity:0.99900004">
    <path
       style="opacity:0.99900004;fill:#204c78;fill-rule:evenodd;stroke:none"
       d="m 122.75391,180.19922 3.04297,-14.1836 -28.425786,-3.89648 17.464846,-58.42187 -28.406252,10.88281 3.910156,-10.45313 -0.109375,-1.20312 1.761719,-4.773439 -18.714844,-17 L 67.351562,67.798828 48.025391,33.710938 53.160156,25.298828 36.744141,29.378906 0,47.658203 V 147 c 0,18.2594 14.939819,33.19922 33.199219,33.19922 z"
       id="path4758"
       inkscape:connector-curvature="0"
       inkscape:export-xdpi="17.047798"
       inkscape:export-ydpi="17.047798" />
    <path
       style="opacity:0.99900004;fill:#336699;fill-rule:evenodd"
       d="M 33.199219,0 C 14.939819,0 0,14.939919 0,33.199219 v 14.458984 l 36.744141,-18.279297 16.416015,-4.080078 -5.134765,8.41211 19.326171,34.08789 5.925782,13.351563 18.714844,17 -1.761719,4.773439 0.109375,1.20312 -3.910156,10.45313 28.406252,-10.88281 -17.464846,58.42187 28.425786,3.89648 -3.04297,14.1836 H 147 c 18.2594,0 33.19922,-14.93982 33.19922,-33.19922 V 33.199219 C 180.19922,14.939919 165.2594,0 147,0 Z"
       id="path3694"
       inkscape:connector-curvature="0"
       inkscape:export-xdpi="17.047798"
       inkscape:export-ydpi="17.047798" />
  </g>
  <g
     inkscape:groupmode="layer"
     id="layer3"
     inkscape:label="Layer 2"
     style="display:inline" />
  <g
     inkscape:groupmode="layer"
     id="layer4"
     inkscape:label="Layer 3"
     style="display:inline">
    <path
       inkscape:connector-curvature="0"
       id="path3698"
       style="fill:#ffffff;fill-rule:evenodd"
       d="m 36.8591,117.8014 c 6.3071,12.0028 16.2726,20.8384 27.8062,25.8619 l 3.9237,-8.6244 c 3.5538,-7.8109 12.9753,-6.0327 12.9753,2.5501 v 6.9403 l 2.6898,-1.4134 c 2.7643,-1.4524 3.8341,-4.8914 2.3816,-7.6558 l -5.138,-9.7775 -3.4747,2.0863 c -1.3278,0.7971 -3.0657,0.3628 -3.8628,-0.9649 l -1.6861,-2.808 -1.6174,0.8498 c -0.8393,0.4408 -14.4791,8.494 -25.1008,-11.7196 -10.6214,-20.2132 3.7483,-26.8783 4.587,-27.3191 l 2.9756,-1.5636 c 2.0242,-1.0636 3.1396,-3.1921 3.0214,-5.3413 -0.4901,0.0912 -0.9955,0.1397 -1.5123,0.1397 -4.528,0 -8.1986,-3.6706 -8.1986,-8.1986 0,-2.2862 0.936,-4.3538 2.4454,-5.8406 -1.7067,-1.36 -4.1281,-1.6707 -6.1781,-0.593 l -6.1566,3.2349 c -1.269,0.667 -2.1446,1.6524 -2.6574,2.9914 -5.6875,14.8505 -5.2022,31.9814 2.7768,47.1654 z m 42.7184,36.813 H 61.8658 l 8.5317,-18.7526 c 2.6251,-5.7702 9.18,-4.8248 9.18,1.7272 z m -4.426,-20.6997 c -1.2841,0 -2.325,1.0409 -2.325,2.325 0,1.2841 1.0409,2.3249 2.325,2.3249 1.2841,0 2.3249,-1.0408 2.3249,-2.3249 0,-1.2841 -1.0408,-2.325 -2.3249,-2.325 z M 39.302,156.2273 h 84.5994 c 1.1137,0 2.0254,0.9116 2.0254,2.0254 v 7.0495 c 0,1.1137 -0.9114,2.0253 -2.0254,2.0253 H 39.302 c -1.114,0 -2.0254,-0.9113 -2.0254,-2.0253 v -7.0495 c 0,-1.114 0.9117,-2.0254 2.0254,-2.0254 z M 54.7891,64.994 c -3.2718,0 -5.9242,2.6523 -5.9242,5.9241 0,3.2717 2.6524,5.9241 5.9242,5.9241 3.2717,0 5.9241,-2.6524 5.9241,-5.9241 0,-3.2718 -2.6524,-5.9241 -5.9241,-5.9241 z m -7.236,14.8501 c -1.5117,0 -2.7374,1.2257 -2.7374,2.7374 0,1.5117 1.2257,2.7374 2.7374,2.7374 1.5117,0 2.7374,-1.2257 2.7374,-2.7374 0,-1.5117 -1.2257,-2.7374 -2.7374,-2.7374 z m 67.8192,21.706 -3.0527,-5.0842 c -0.4433,-0.7384 -1.4091,-0.9797 -2.1475,-0.5363 L 72.8494,118.338 c -0.7381,0.4431 -0.9796,1.4091 -0.5363,2.1476 l 3.0524,5.0842 c 0.4433,0.7384 1.4096,0.9796 2.1478,0.5363 l 37.3226,-22.4082 c 0.7385,-0.4433 0.9797,-1.4094 0.5364,-2.1478 z M 50.2627,20.9439 36.937,28.6447 c -0.2559,0.1477 -0.3415,0.4799 -0.193,0.7348 l 2.1399,3.6649 c 0.1485,0.2545 0.4793,0.3407 0.7347,0.193 L 52.944,25.5363 c 0.2554,-0.1477 0.3421,-0.4794 0.193,-0.7348 l -2.1398,-3.6646 c -0.1491,-0.2554 -0.4788,-0.3404 -0.7345,-0.193 z M 45.1598,37.698 c -2.1152,1.7277 -2.7295,4.7988 -1.3176,7.2335 l 10.2887,17.7429 c 0.2299,-0.0193 0.462,-0.0298 0.6967,-0.0298 1.9117,0 3.6706,0.6542 5.065,1.7513 3.414,2.3615 4.5654,7.4704 1.8153,10.9071 -0.0734,0.1134 -0.15,0.2242 -0.2288,0.3336 L 73.5162,96.113 c 1.4074,2.3944 4.3072,3.3996 6.8317,2.4882 l 4.3946,7.5266 c 0.3951,0.6769 1.2719,0.9074 1.9488,0.5119 l 3.028,-1.7679 c 0.6769,-0.3952 0.9071,-1.2717 0.5119,-1.9486 l -4.3393,-7.4321 1.3215,-0.7662 2.3571,4.0368 c 0.1924,0.3294 0.6188,0.4413 0.9484,0.2491 l 1.4738,-0.8606 c 0.3296,-0.1924 0.4416,-0.6188 0.2491,-0.9484 L 89.8528,93.11 c 2.1107,-1.7289 2.7229,-4.7951 1.3119,-7.229 L 61.4907,34.6995 c -1.4677,-2.5313 -4.6165,-3.5039 -7.23,-2.3269 L 52.5474,29.4384 C 52.3144,29.0396 51.7988,28.9041 51.4,29.1368 l -7.6573,4.4708 c -0.3985,0.2328 -0.534,0.7487 -0.301,1.1475 z m 63.7081,80.8858 -1.6841,-2.8049 c -0.2443,-0.4073 -0.7772,-0.5403 -1.1846,-0.2956 l -20.59,12.3618 c -0.4071,0.2447 -0.5403,0.7776 -0.2957,1.1849 l 1.6838,2.8049 c 0.2447,0.4073 0.7776,0.5403 1.1849,0.2957 l 20.59,-12.3619 c 0.4074,-0.2447 0.5403,-0.7776 0.2957,-1.1849 z"
       inkscape:export-xdpi="17.047798"
       inkscape:export-ydpi="17.047798" />
  </g>
  <g
     inkscape:groupmode="layer"
     id="layer5"
     inkscape:label="Layer 4"
     style="display:inline">
    <rect
       style="fill:#f11106;stroke:none;stroke-width:0.69672531;stroke-miterlimit:4;stroke-dasharray:none;stroke-opacity:1"
       id="rect4592"
       width="22.46854"
       height="3.9517751"
       x="99.709854"
       y="36.404968"
       ry="1.9758875"
       inkscape:export-xdpi="17.047798"
       inkscape:export-ydpi="17.047798" />
    <rect
       style="fill:#0171e2;stroke:none;stroke-width:0.69672531;stroke-miterlimit:4;stroke-dasharray:none;stroke-opacity:1"
       id="rect4592-5"
       width="22.46854"
       height="3.9517751"
       x="99.650818"
       y="56.190186"
       ry="1.9758875"
       inkscape:export-xdpi="17.047798"
       inkscape:export-ydpi="17.047798" />
    <rect
       style="fill:#f11106;stroke:none;stroke-width:0.69672531;stroke-miterlimit:4;stroke-dasharray:none;stroke-opacity:1"
       id="rect4592-1"
       width="22.46854"
       height="3.9517751"
       x="142.2756"
       y="46.980663"
       ry="1.9758875"
       inkscape:export-xdpi="17.047798"
       inkscape:export-ydpi="17.047798" />
    <rect
       style="fill:#ffffff;stroke:none;stroke-width:0.30658716;stroke-miterlimit:4;stroke-dasharray:none;stroke-opacity:1"
       id="rect4592-8"
       width="22.46854"
       height="0.76520365"
       x="100.97552"
       y="37.379799"
       ry="0.38260183"
       inkscape:export-xdpi="17.047798"
       inkscape:export-ydpi="17.047798" />
    <rect
       style="display:inline;opacity:0.99900004;fill:#ffffff;stroke:none;stroke-width:0.30658716;stroke-miterlimit:4;stroke-dasharray:none;stroke-opacity:1"
       id="rect4592-8-6"
       width="22.46854"
       height="0.76520365"
       x="100.97552"
       y="57.333916"
       ry="0.38260183"
       inkscape:export-xdpi="17.047798"
       inkscape:export-ydpi="17.047798" />
    <rect
       style="display:inline;fill:#ffffff;stroke:none;stroke-width:0.30658716;stroke-miterlimit:4;stroke-dasharray:none;stroke-opacity:1"
       id="rect4592-8-7"
       width="22.46854"
       height="0.76520365"
       x="140.28635"
       y="47.951839"
       ry="0.38260183"
       inkscape:export-xdpi="17.047798"
       inkscape:export-ydpi="17.047798" />
    <path
       sodipodi:type="star"
       style="fill:#fbd504;fill-opacity:1;stroke:#000000;stroke-width:14.26037312;stroke-miterlimit:4;stroke-dasharray:none;stroke-opacity:1"
       id="path4590-4"
       sodipodi:sides="3"
       sodipodi:cx="744.66437"
       sodipodi:cy="906.62006"
       sodipodi:r1="473.98477"
       sodipodi:r2="236.99239"
       sodipodi:arg1="0"
       sodipodi:arg2="1.0471976"
       inkscape:flatsided="true"
       inkscape:rounded="0"
       inkscape:randomized="0"
       d="m 1218.6491,906.62006 -710.97712,410.48284 0,-820.9657 z"
       inkscape:transform-center-x="-4.4885827"
       transform="matrix(0.05264491,0,0,0.04534245,89.734996,7.8481775)"
       inkscape:transform-center-y="-1.6645412e-006"
       inkscape:export-xdpi="17.047798"
       inkscape:export-ydpi="17.047798" />
    <text
       xml:space="preserve"
       style="font-style:normal;font-variant:normal;font-weight:bold;font-stretch:normal;font-size:19.27192307px;line-height:1.25;font-family:sans-serif;-inkscape-font-specification:'sans-serif Bold';letter-spacing:0px;word-spacing:0px;fill:#000000;fill-opacity:1;stroke:none;stroke-width:0.48179808"
       x="123.15291"
       y="55.962387"
       id="text4727"
       inkscape:export-xdpi="17.047798"
       inkscape:export-ydpi="17.047798"><tspan
         sodipodi:role="line"
         id="tspan4725"
         x="123.15291"
         y="55.962387"
         style="font-style:normal;font-variant:normal;font-weight:bold;font-stretch:normal;font-family:sans-serif;-inkscape-font-specification:'sans-serif Bold';stroke-width:0.48179808">!</tspan></text>
    <circle
       style="fill:none;fill-opacity:1;stroke:#ffffff;stroke-width:1.10365367;stroke-miterlimit:4;stroke-dasharray:none;stroke-opacity:1"
       id="path4740"
       cx="132.15707"
       cy="48.215931"
       r="38.192284"
       inkscape:export-xdpi="17.047798"
       inkscape:export-ydpi="17.047798" />
  </g>
  <g
     inkscape:groupmode="layer"
     id="layer6"
     inkscape:label="Layer 5">
    <text
       xml:space="preserve"
       style="font-style:normal;font-weight:normal;font-size:40px;line-height:1.25;font-family:sans-serif;letter-spacing:0px;word-spacing:0px;fill:#000000;fill-opacity:1;stroke:none"
       x="184.57309"
       y="140.68494"
       id="text4766"><tspan
         sodipodi:role="line"
         x="184.57309"
         y="140.68494"
         id="tspan4768"
         style="font-size:37.33333206px">LabVIEW</tspan></text>
    <text
       xml:space="preserve"
       style="font-style:normal;font-weight:normal;font-size:40.89167404px;line-height:1.25;font-family:sans-serif;letter-spacing:0px;word-spacing:0px;fill:#000000;fill-opacity:1;stroke:none;stroke-width:1.0222919"
       x="181.53342"
       y="174.56862"
       id="text4774"><tspan
         sodipodi:role="line"
         id="tspan4772"
         x="181.53342"
         y="174.56862"
         style="font-size:27.26111603px;stroke-width:1.0222919">Task Manager</tspan></text>
    <text
       xml:space="preserve"
       style="font-style:normal;font-weight:normal;font-size:10.50948143px;line-height:1.25;font-family:sans-serif;letter-spacing:0px;word-spacing:0px;fill:#000000;fill-opacity:1;stroke:none;stroke-width:0.26273704"
       x="353.74182"
       y="119.96128"
       id="text4778"><tspan
         sodipodi:role="line"
         id="tspan4776"
         x="353.74182"
         y="119.96128"
         style="stroke-width:0.26273704">TM</tspan></text>
  </g>
</svg>
